<?xml version="1.0" encoding="UTF-8" standalone="no"?>
<svg
   xmlns:dc="http://purl.org/dc/elements/1.1/"
   xmlns:cc="http://creativecommons.org/ns#"
   xmlns:rdf="http://www.w3.org/1999/02/22-rdf-syntax-ns#"
   xmlns:svg="http://www.w3.org/2000/svg"
   xmlns="http://www.w3.org/2000/svg"
   xmlns:sodipodi="http://sodipodi.sourceforge.net/DTD/sodipodi-0.dtd"
   xmlns:inkscape="http://www.inkscape.org/namespaces/inkscape"
   width="128"
   height="128"
   version="1.1"
   id="svg74"
   sodipodi:docname="salt-water-bottle.svg"
   inkscape:version="1.0.2 (e86c870879, 2021-01-15, custom)">
  <metadata
     id="metadata80">
    <rdf:RDF>
      <cc:Work
         rdf:about="">
        <dc:format>image/svg+xml</dc:format>
        <dc:type
           rdf:resource="http://purl.org/dc/dcmitype/StillImage" />
        <dc:title />
      </cc:Work>
    </rdf:RDF>
  </metadata>
  <defs
     id="defs78" />
  <sodipodi:namedview
     pagecolor="#ffffff"
     bordercolor="#666666"
     borderopacity="1"
     objecttolerance="10"
     gridtolerance="10"
     guidetolerance="10"
     inkscape:pageopacity="0"
     inkscape:pageshadow="2"
     inkscape:window-width="1920"
     inkscape:window-height="1017"
     id="namedview76"
     showgrid="false"
     inkscape:zoom="6.4609375"
     inkscape:cx="34.205562"
     inkscape:cy="76.382104"
     inkscape:window-x="3192"
     inkscape:window-y="-8"
     inkscape:window-maximized="1"
     inkscape:current-layer="g72"
     inkscape:document-rotation="0" />
  <g
     id="g49">
    <title
       id="title46">background</title>
    <rect
       fill="none"
       id="canvas_background"
       height="602"
       width="802"
       y="-1"
       x="-1" />
  </g>
  <g
     id="g72">
    <title
       id="title51">Layer 1</title>
    <path
       id="svg_1"
       fill="#d9e2e9"
       d="M 85.616,37.676 C 85.611534,31.987364 83.517184,26.498635 79.731,22.253 L 64,4.646 48.268,22.253 c -3.786184,4.245635 -5.880534,9.734364 -5.885,15.423 10e-4,60.506 0,0 10e-4,60.506 1.153171,0 2.088,0.934829 2.088,2.088 v 5.742 c 0,1.15317 -0.934829,2.088 -2.088,2.088 v 15.174 c 0.0055,2.05514 1.669858,3.71996 3.725,3.726 H 51.6 l 0.012,-0.095 c 0.113055,-1.05486 0.739997,-1.98573 1.675,-2.487 1.230244,-0.65825 2.738942,-0.49004 3.794,0.423 0.600898,0.53374 0.988411,1.26686 1.091,2.064 L 58.184,127 h 11.629 v -0.04 c 0.153972,-1.39471 1.17061,-2.54078 2.537,-2.86 1.043007,-0.23523 2.135735,0.0391 2.944,0.739 0.601268,0.53358 0.989147,1.26672 1.092,2.064 L 76.4,127 h 5.493 c 2.054753,-0.006 3.718959,-1.67025 3.725,-3.725 V 108.1 c -1.153171,0 -2.088,-0.93483 -2.088,-2.088 v -5.742 c 0,-1.153171 0.934829,-2.088 2.088,-2.088 -0.002,-60.506 0,0 -0.002,-60.506 z"
       sodipodi:nodetypes="ccccccssccccccccccccccccccsscc" />
    <path
       id="svg_2"
       fill="#d9e2e9"
       d="m 85.616478,37.676 c -0.0045,-5.688636 -2.098816,-11.177365 -5.885,-15.423 l -15.731,-17.607 -15.732,17.607 c -3.786184,4.245635 -5.880534,9.734364 -5.885,15.423 -0.303199,36.945798 -0.421715,37.174652 0.001,60.506 1.153171,0 2.088,0.934829 2.088,2.088 v 5.742 c 0,1.15317 -0.934829,2.088 -2.088,2.088 v 15.174 c 0.0055,2.05514 1.669858,3.71996 3.725,3.726 h 5.491 l 0.012,-0.095 c 0.113055,-1.05486 0.739997,-1.98573 1.675,-2.487 1.230244,-0.65825 2.738942,-0.49004 3.794,0.423 0.600898,0.53374 0.988411,1.26686 1.091,2.064 l 0.012,0.095 h 11.629 v -0.04 c 0.153972,-1.39471 1.17061,-2.54078 2.537,-2.86 1.043007,-0.23523 2.135735,0.0391 2.944,0.739 0.601268,0.53358 0.989147,1.26672 1.092,2.064 l 0.014,0.097 h 5.493 c 2.054753,-0.006 3.718959,-1.67025 3.725,-3.725 V 108.1 c -1.153171,0 -2.088,-0.93483 -2.088,-2.088 v -5.742 c 0,-1.153171 0.934829,-2.088 2.088,-2.088 -0.002,-60.506 0,0 -0.002,-60.506 z"
       sodipodi:nodetypes="ccccccssccccccccccccccccccsscc" />
    <g
       id="svg_3"
       fill="#c1cdd3">
      <path
         id="svg_4"
         d="m51.258,126.905l0.012,0.095l-5.161,0a3.56,3.56 0 0 1 -1.376,-0.273a3.19,3.19 0 0 1 1.637,-2.313a3.383,3.383 0 0 1 3.8,0.427a3.329,3.329 0 0 1 1.088,2.064z" />
      <path
         id="svg_5"
         d="m69.469,126.905l0.012,0.095l-6.581,0l0.012,-0.036a3.286,3.286 0 0 1 2.527,-2.859a3.3,3.3 0 0 1 4.034,2.8l-0.004,0z" />
      <path
         id="svg_6"
         d="m 85.617,98.182 c -1.152485,0.0017 -2.086348,0.935515 -2.088,2.088 v 5.742 c 0.0017,1.15249 0.935515,2.08635 2.088,2.088 v 15.174 c -0.0033,2.05644 -1.669557,3.7227 -3.726,3.726 H 76.4 l -0.012,-0.095 c -0.0063,-0.0603 -0.01831,-0.11996 -0.036,-0.178 1.416556,-0.5604 2.347595,-1.92862 2.349,-3.452 V 108.1 c -1.152485,-0.002 -2.086348,-0.93551 -2.088,-2.088 v -5.742 c 0.0017,-1.152096 0.934905,-2.085797 2.087,-2.088 0,-60.506 -0.048,0 0,-60.506 C 78.6955,31.987364 76.601184,26.498635 72.815,22.253 L 60.548,8.514 64,4.646 79.732,22.253 c 3.786184,4.245635 5.880534,9.734364 5.885,15.423 10e-4,60.506 0,0 0,60.506 z"
         sodipodi:nodetypes="ccccccccccccccccccccc" />
      <path
         id="svg_7"
         d="m58.175,126.905l0.012,0.095l-6.587,0l0.012,-0.095a3.245,3.245 0 0 1 1.673,-2.491a3.384,3.384 0 0 1 3.8,0.427a3.329,3.329 0 0 1 1.09,2.064z" />
      <path
         id="svg_8"
         d="m76.35,126.727a3.56,3.56 0 0 1 -1.376,0.273l-5.161,0l0,-0.036a3.313,3.313 0 0 1 2.539,-2.859a3.348,3.348 0 0 1 2.942,0.736a3.3,3.3 0 0 1 1.056,1.886z" />
    </g>
    <path
       id="svg_10"
       fill="#5fc4f8"
       d="m 44.476,28.116 a 23.129,23.129 0 0 0 -2.092,9.56 v 60.506 a 2.088,2.088 0 0 1 2.088,2.088 v 5.742 a 2.088,2.088 0 0 1 -2.088,2.088 v 15.174 A 3.736,3.736 0 0 0 46.109,127 H 51.6 l 0.012,-0.095 a 3.21,3.21 0 0 1 1.675,-2.487 3.369,3.369 0 0 1 3.794,0.423 3.329,3.329 0 0 1 1.091,2.064 L 58.184,127 h 11.629 v -0.04 a 3.31,3.31 0 0 1 2.537,-2.86 3.366,3.366 0 0 1 2.944,0.739 3.329,3.329 0 0 1 1.092,2.064 L 76.4,127 h 5.493 a 3.736,3.736 0 0 0 3.725,-3.725 V 108.1 a 2.088,2.088 0 0 1 -2.088,-2.088 v -5.742 a 2.088,2.088 0 0 1 2.088,-2.088 L 85.617,37.676 a 23.129,23.129 0 0 0 -2.092,-9.56 z"
       style="fill:#60eff7;fill-opacity:1" />
    <path
       id="svg_11"
       fill="#3dbce9"
       d="m51.211,126.905l0.012,0.095l-5.114,0a3.589,3.589 0 0 1 -1.424,-0.285a3.17,3.17 0 0 1 1.637,-2.3a3.387,3.387 0 0 1 3.8,0.427a3.329,3.329 0 0 1 1.089,2.063z"
       style="fill:#3bd5db;fill-opacity:1" />
    <path
       id="svg_12"
       fill="#3dbce9"
       d="m69.422,126.905l0.012,0.095l-6.585,0l0,-0.036a3.315,3.315 0 0 1 2.527,-2.859a3.382,3.382 0 0 1 2.954,0.736a3.329,3.329 0 0 1 1.092,2.064z"
       style="fill:#3bd5db;fill-opacity:1" />
    <path
       id="svg_13"
       fill="#39b1d1"
       d="m85.617,98.182a2.091,2.091 0 0 0 -2.088,2.088l0,5.742a2.091,2.091 0 0 0 2.088,2.088l0,15.174a3.732,3.732 0 0 1 -3.726,3.726l-5.491,0l-0.012,-0.095c-0.012,-0.059 -0.024,-0.13 -0.036,-0.19a3.748,3.748 0 0 0 2.3,-3.441l0,-15.174a2.084,2.084 0 0 1 -2.088,-2.088l0,-5.742a2.084,2.084 0 0 1 2.088,-2.088l0.001,-60.506a23.209,23.209 0 0 0 -2.1,-9.562l6.976,0a23.2,23.2 0 0 1 2.088,9.562l0,60.506z"
       style="fill:#39c9ce;fill-opacity:1" />
    <path
       id="svg_14"
       fill="#3dbce9"
       d="m58.175,126.905l0.012,0.095l-6.587,0l0.012,-0.095a3.245,3.245 0 0 1 1.673,-2.491a3.384,3.384 0 0 1 3.8,0.427a3.329,3.329 0 0 1 1.09,2.064z"
       style="fill:#3bd5db;fill-opacity:1" />
    <path
       id="svg_15"
       fill="#3dbce9"
       d="m76.35,126.715a3.589,3.589 0 0 1 -1.424,0.285l-5.113,0l0,-0.036a3.313,3.313 0 0 1 2.539,-2.859a3.348,3.348 0 0 1 2.942,0.736a3.307,3.307 0 0 1 1.056,1.874z"
       style="fill:#3bd5db;fill-opacity:1" />
    <path
       id="svg_16"
       fill="#2f3a5a"
       d="M 81.891,128 H 76.4 a 1,1 0 0 1 -0.992,-0.877 2.306,2.306 0 0 0 -2.847,-2.042 2.327,2.327 0 0 0 -1.748,2 1.041,1.041 0 0 1 -1,0.916 H 58.187 a 1,1 0 0 1 -0.992,-0.877 2.319,2.319 0 0 0 -3.453,-1.812 2.228,2.228 0 0 0 -1.135,1.719 1.1,1.1 0 0 1 -1,0.971 h -5.498 a 4.731,4.731 0 0 1 -4.726,-4.725 V 108.1 a 1,1 0 0 1 1,-1 1.089,1.089 0 0 0 1.088,-1.088 v -5.742 a 1.09,1.09 0 0 0 -1.088,-1.088 1,1 0 0 1 -1,-1 L 41.384,37.676 A 24.158,24.158 0 0 1 47.523,21.587 L 63.254,3.98 a 1.035,1.035 0 0 1 1.492,0 l 15.732,17.606 a 24.163,24.163 0 0 1 6.139,16.09 l -0.001,60.506 a 1,1 0 0 1 -1,1 1.09,1.09 0 0 0 -1.088,1.088 v 5.742 a 1.089,1.089 0 0 0 1.088,1.088 1,1 0 0 1 1,1 v 15.174 A 4.731,4.731 0 0 1 81.891,128 Z M 77.2,126 h 4.688 a 2.729,2.729 0 0 0 2.726,-2.725 v -14.34 a 3.093,3.093 0 0 1 -2.088,-2.922 v -5.742 a 3.093,3.093 0 0 1 2.088,-2.922 L 84.616,37.676 A 22.164,22.164 0 0 0 78.985,22.918 L 64,6.147 49.015,22.919 a 22.159,22.159 0 0 0 -5.631,14.757 v 59.672 a 3.093,3.093 0 0 1 2.088,2.922 v 5.742 a 3.093,3.093 0 0 1 -2.088,2.922 v 14.34 A 2.729,2.729 0 0 0 46.109,126 H 50.8 a 4.094,4.094 0 0 1 2.037,-2.474 4.313,4.313 0 0 1 6.155,2.474 H 69.018 A 4.242,4.242 0 0 1 72.144,123.124 4.3,4.3 0 0 1 77.2,126 Z" />
    <path
       id="svg_17"
       fill="#4e65fc"
       d="m55.154,1l17.69,0l0,12.052l-17.69,0l0,-12.052z" />
    <path
       id="svg_18"
       fill="#465adb"
       d="m72.84,1l0,12.05l-17.69,0l0,-3.03l13.87,0l0,-9.02l3.82,0z" />
    <path
       id="svg_19"
       fill="#2f3a5a"
       d="m72.844,14.052l-17.69,0a1,1 0 0 1 -1,-1l0,-12.052a1,1 0 0 1 1,-1l17.69,0a1,1 0 0 1 1,1l0,12.052a1,1 0 0 1 -1,1zm-16.689,-2l15.689,0l0,-10.052l-15.69,0l0.001,10.052z" />
  </g>
</svg>
